<?xml version="1.0" encoding="UTF-8" standalone="no"?>
<!DOCTYPE svg PUBLIC "-//W3C//DTD SVG 1.1//EN" "http://www.w3.org/Graphics/SVG/1.1/DTD/svg11.dtd">
<!-- Created with Vectornator (http://vectornator.io/) -->
<svg height="100%" stroke-miterlimit="10" style="fill-rule:nonzero;clip-rule:evenodd;stroke-linecap:round;stroke-linejoin:round;" version="1.1" viewBox="0 0 500 200" width="100%" xml:space="preserve" xmlns="http://www.w3.org/2000/svg" xmlns:vectornator="http://vectornator.io" xmlns:xlink="http://www.w3.org/1999/xlink">
<defs/>
<g id="layer1" vectornator:layerName="layer1">
<path d="M40.5577 173.481C40.5577 173.481 143.142 200.448 187.017 172.652C230.891 144.857 189.71 41.6559 252.037 17.3448C314.364-6.9663 460.142 17.4739 460.142 17.4739" fill="none" opacity="1" stroke="#aa3c39" stroke-linecap="round" stroke-linejoin="miter" stroke-width="7.93077" vectornator:layerName="path"/>
</g>
<g id="layer2" vectornator:layerName="layer2">
<path d="M146.512 85.0651C149.144 85.1771 151.523 85.2331 153.651 85.2331C155.723 85.2331 158.508 85.1771 162.008 85.0651L162.175 86.8707L156.884 88.5084C156.241 88.7324 155.905 89.2083 155.877 89.9362C155.821 91.7838 155.793 94.1074 155.793 96.9069L155.793 130.963C155.793 134.266 155.821 137.051 155.877 139.319C155.905 139.963 156.297 140.397 157.052 140.621L162.092 142.174L162.175 143.98C158.48 143.896 154.953 143.854 151.593 143.854C148.29 143.854 145.029 143.896 141.809 143.98L141.641 142.174L146.47 140.705C147.142 140.509 147.492 140.019 147.52 139.235C147.576 137.023 147.604 134.266 147.604 130.963L147.604 94.5973L126.776 143.854L123.711 144.19L102.757 94.5973L102.757 130.963C102.757 134.266 102.785 137.023 102.841 139.235C102.869 140.019 103.232 140.509 103.932 140.705L108.635 142.174L108.719 143.98C105.388 143.896 102.603 143.854 100.363 143.854C98.1794 143.854 95.2819 143.896 91.6706 143.98L91.5026 142.174L96.6677 140.621C97.3956 140.397 97.7735 139.963 97.8015 139.319C97.8575 137.051 97.8855 134.266 97.8855 130.963L97.8855 96.9069C97.8855 94.1074 97.8575 91.7838 97.8015 89.9362C97.7735 89.2083 97.4375 88.7324 96.7937 88.5084L91.5866 86.8707L91.5026 85.0651C95.114 85.1771 97.9694 85.2331 100.069 85.2331C102.477 85.2331 104.982 85.1771 107.586 85.0651L127.07 131.131L146.512 85.0651Z" fill="#de6663" opacity="0.6" stroke="none" vectornator:layerName="tspan"/>
</g>
<g id="g4139" vectornator:layerName="g4139">
<path d="M271.688 122.573C266.646 122.573 261.542 122.636 256.375 122.761L256.625 120.073L264.438 117.761C265.688 117.427 266.396 116.782 266.563 115.823C266.896 114.157 267.271 112.292 267.688 110.229C268.104 108.167 268.563 105.886 269.063 103.386L278.75 52.6982C279.167 50.5732 279.521 48.6566 279.813 46.9482C280.104 45.2399 280.354 43.6982 280.563 42.3232C280.771 41.2816 280.417 40.5732 279.5 40.1982L271.938 37.7607L272.313 35.0732C277.813 35.2399 283.104 35.3232 288.188 35.3232C290.646 35.3232 293.906 35.2191 297.969 35.0107C302.031 34.8024 305.458 34.6982 308.25 34.6982C320.667 34.6982 330.333 37.5316 337.25 43.1982C344.167 48.8649 347.625 57.0524 347.625 67.7607C347.625 84.1774 342.479 97.4795 332.188 107.667C321.896 117.854 308.104 122.948 290.813 122.948C288.604 122.948 285.458 122.886 281.375 122.761C277.292 122.636 274.063 122.573 271.688 122.573ZM278.5 117.198C282.375 117.782 287 118.073 292.375 118.073C305.167 118.073 315.385 113.261 323.031 103.636C330.677 94.0107 334.5 81.9482 334.5 67.4482C334.5 58.1982 332.177 51.2816 327.531 46.6982C322.885 42.1149 315.771 39.8232 306.188 39.8232C302.438 39.8232 298.063 39.9899 293.063 40.3232L278.5 117.198Z" fill="#dea563" opacity="1" stroke="none" vectornator:layerName="tspan 1"/>
</g>
</svg>
