<?xml version="1.0" encoding="UTF-8" standalone="no"?>
<!DOCTYPE svg PUBLIC "-//W3C//DTD SVG 1.1//EN" "http://www.w3.org/Graphics/SVG/1.1/DTD/svg11.dtd">
<!-- Created with Vectornator (http://vectornator.io/) -->
<svg height="100%" stroke-miterlimit="10" style="fill-rule:nonzero;clip-rule:evenodd;stroke-linecap:round;stroke-linejoin:round;" version="1.1" viewBox="0 0 436 200" width="100%" xml:space="preserve" xmlns="http://www.w3.org/2000/svg" xmlns:vectornator="http://vectornator.io" xmlns:xlink="http://www.w3.org/1999/xlink">
<defs/>
<g id="layer1" vectornator:layerName="layer1">
<path d="M7.5577 177.481C7.5577 177.481 110.142 204.448 154.017 176.652C197.891 148.857 156.71 45.6559 219.037 21.3448C281.364-2.9663 427.142 21.4739 427.142 21.4739" fill="none" opacity="1" stroke="#aa3c39" stroke-linecap="round" stroke-linejoin="miter" stroke-width="12" vectornator:layerName="path"/>
</g>
<g id="layer2" vectornator:layerName="layer2">
<path d="M116.367 85.9785C119.793 86.1258 122.89 86.1994 125.66 86.1994C128.358 86.1994 131.983 86.1258 136.539 85.9785L136.757 88.3528L129.869 90.5063C129.032 90.8008 128.595 91.4266 128.558 92.3838C128.485 94.8133 128.449 97.8687 128.449 101.55L128.449 146.332C128.449 150.675 128.485 154.338 128.558 157.32C128.595 158.167 129.105 158.737 130.088 159.032L136.649 161.074L136.757 163.449C131.947 163.338 127.355 163.283 122.981 163.283C118.682 163.283 114.436 163.338 110.245 163.449L110.026 161.074L116.312 159.142C117.187 158.885 117.643 158.24 117.679 157.209C117.752 154.301 117.788 150.675 117.788 146.332L117.788 98.5129L90.675 163.283L86.685 163.725L59.4075 98.5129L59.4075 146.332C59.4075 150.675 59.444 154.301 59.5169 157.209C59.5533 158.24 60.0259 158.885 60.9371 159.142L67.0594 161.074L67.1687 163.449C62.8325 163.338 59.207 163.283 56.291 163.283C53.4485 163.283 49.6766 163.338 44.9754 163.449L44.7567 161.074L51.4806 159.032C52.4281 158.737 52.9201 158.167 52.9565 157.32C53.0294 154.338 53.0659 150.675 53.0659 146.332L53.0659 101.55C53.0659 97.8687 53.0294 94.8133 52.9565 92.3838C52.9201 91.4266 52.4827 90.8008 51.6446 90.5063L44.8661 88.3528L44.7567 85.9785C49.458 86.1258 53.1751 86.1994 55.9083 86.1994C59.043 86.1994 62.304 86.1258 65.6938 85.9785L91.0577 146.553L116.367 85.9785Z" fill="#717d11" fill-rule="nonzero" opacity="0.6" stroke="none" vectornator:layerName="tspan"/>
</g>
<g id="g4139" vectornator:layerName="g4139">
<path d="M245.14 156.786C238.178 156.786 231.13 156.868 223.995 157.031L224.341 153.536L235.129 150.529C236.855 150.095 237.833 149.256 238.063 148.009C238.523 145.843 239.041 143.418 239.617 140.735C240.191 138.054 240.825 135.088 241.515 131.838L254.891 65.929C255.467 63.1659 255.956 60.6737 256.359 58.4523C256.761 56.2311 257.106 54.2264 257.395 52.4385C257.682 51.0841 257.193 50.163 255.927 49.6754L245.485 46.506L246.003 43.0114C253.597 43.2282 260.903 43.3365 267.923 43.3365C271.317 43.3365 275.819 43.2012 281.429 42.9302C287.038 42.6593 291.77 42.5238 295.625 42.5238C312.771 42.5238 326.118 46.2081 335.669 53.5763C345.22 60.9446 349.995 71.5907 349.995 85.5145C349.995 106.861 342.89 124.157 328.68 137.404C314.468 150.65 295.424 157.274 271.548 157.274C268.498 157.274 264.154 157.193 258.516 157.031C252.878 156.868 248.419 156.786 245.14 156.786ZM254.546 149.797C259.897 150.557 266.283 150.935 273.705 150.935C291.368 150.935 305.478 144.678 316.035 132.163C326.593 119.647 331.872 103.962 331.872 85.1082C331.872 73.0806 328.664 64.087 322.249 58.1273C315.834 52.1677 306.011 49.1878 292.778 49.1878C287.6 49.1878 281.559 49.4046 274.655 49.8379L254.546 149.797Z" fill="#44808a" fill-rule="nonzero" opacity="1" stroke="none" vectornator:layerName="tspan 1"/>
</g>
</svg>
