<?xml version="1.0" encoding="UTF-8" standalone="no"?>
<!DOCTYPE svg PUBLIC "-//W3C//DTD SVG 1.1//EN" "http://www.w3.org/Graphics/SVG/1.1/DTD/svg11.dtd">
<!-- Created with Vectornator (http://vectornator.io/) -->
<svg height="100%" stroke-miterlimit="10" style="fill-rule:nonzero;clip-rule:evenodd;stroke-linecap:round;stroke-linejoin:round;" version="1.1" viewBox="0 0 500 200" width="100%" xml:space="preserve" xmlns="http://www.w3.org/2000/svg" xmlns:vectornator="http://vectornator.io" xmlns:xlink="http://www.w3.org/1999/xlink">
<defs/>
<g id="layer1" vectornator:layerName="layer1">
<path d="M15.5577 173.481C15.5577 173.481 130.196 200.448 179.225 172.652C228.255 144.857 182.235 41.6559 251.886 17.3448C321.536-6.9663 484.442 17.4739 484.442 17.4739" fill="none" opacity="1" stroke="#aa3c39" stroke-linecap="round" stroke-linejoin="miter" stroke-width="7.93077" vectornator:layerName="path"/>
</g>
<g id="layer2" vectornator:layerName="layer2">
<g fill="#de6663" opacity="0.6" stroke="none" vectornator:layerName="tspan">
<path d="M139.47 70.5034C141.673 70.5972 143.665 70.6441 145.446 70.6441C147.181 70.6441 149.513 70.5972 152.442 70.5034L152.583 72.0152L148.153 73.3862C147.614 73.5737 147.333 73.9722 147.31 74.5816C147.263 76.1284 147.239 78.0737 147.239 80.4175L147.239 108.929C147.239 111.695 147.263 114.027 147.31 115.925C147.333 116.464 147.661 116.828 148.294 117.015L152.513 118.316L152.583 119.828C149.489 119.757 146.536 119.722 143.724 119.722C140.958 119.722 138.228 119.757 135.532 119.828L135.392 118.316L139.435 117.085C139.997 116.921 140.29 116.511 140.314 115.855C140.36 114.003 140.384 111.695 140.384 108.929L140.384 78.4839L122.946 119.722L120.38 120.003L102.837 78.4839L102.837 108.929C102.837 111.695 102.86 114.003 102.907 115.855C102.931 116.511 103.235 116.921 103.821 117.085L107.759 118.316L107.829 119.828C105.04 119.757 102.708 119.722 100.833 119.722C99.005 119.722 96.5792 119.757 93.5558 119.828L93.4151 118.316L97.7393 117.015C98.3487 116.828 98.6651 116.464 98.6886 115.925C98.7354 114.027 98.7589 111.695 98.7589 108.929L98.7589 80.4175C98.7589 78.0737 98.7354 76.1284 98.6886 74.5816C98.6651 73.9722 98.3839 73.5737 97.8448 73.3862L93.4854 72.0152L93.4151 70.5034C96.4386 70.5972 98.8292 70.6441 100.587 70.6441C102.603 70.6441 104.7 70.5972 106.88 70.5034L123.192 109.07L139.47 70.5034Z"/>
<path d="M153.743 87.1323C156.696 87.2027 159.321 87.2378 161.618 87.2378C163.189 87.2378 165.696 87.2027 169.142 87.1323L169.282 88.5737L165.169 89.6987C166.036 92.1597 167.044 94.8726 168.192 97.8374C169.341 100.802 170.56 103.89 171.849 107.101C172.388 108.437 172.974 109.972 173.607 111.707C174.263 109.949 174.966 108.156 175.716 106.328C176.817 103.609 177.884 100.931 178.915 98.2945C179.946 95.6577 181.013 92.7925 182.114 89.6987L178.107 88.5737L177.966 87.1323C179.7 87.2027 181.728 87.2378 184.048 87.2378C186.134 87.2378 188.161 87.2027 190.13 87.1323L190.306 88.5737L187.036 89.4878C186.31 89.7222 185.782 90.2027 185.454 90.9292C184.587 92.9214 183.65 95.1011 182.642 97.4683C179.548 104.734 177.204 110.687 175.61 115.328C174.532 118.468 173.56 121.685 172.692 124.978C171.825 128.271 171.157 131.101 170.689 133.468C170.478 134.617 170.05 135.49 169.405 136.087C168.761 136.685 167.255 136.984 164.888 136.984C162.474 136.984 160.13 136.902 157.857 136.738L157.681 135.367C160.259 134.968 162.169 134.136 163.411 132.871C164.911 131.253 167.232 126.953 170.372 119.968L170.653 119.3L170.161 119.16C165.872 108.472 161.993 99.0737 158.525 90.9644C158.22 90.2612 157.681 89.7808 156.907 89.523L153.814 88.5737L153.743 87.1323Z"/>
</g>
</g>
<g id="g4139" vectornator:layerName="g4139">
<g fill="#aa3c39" opacity="1" stroke="none" vectornator:layerName="tspan">
<path d="M283.527 87.8052C280.179 89.8927 276.733 91.3895 273.188 92.2954C269.643 93.2013 266.354 93.6543 263.321 93.6543C254.656 93.6543 247.743 91.1827 242.583 86.2395C237.423 81.2963 234.843 74.4329 234.843 65.6494C234.843 56.9053 237.315 49.7563 242.258 44.2026C247.201 38.6489 253.809 35.8721 262.08 35.8721C269.012 35.8721 274.409 37.9498 278.269 42.1052C282.129 46.2607 284.059 52.0015 284.059 59.3276C284.059 60.4305 284 61.5531 283.881 62.6953L246.423 62.6953C246.423 71.1637 248.413 77.2196 252.391 80.863C256.369 84.5064 262.592 86.3281 271.061 86.3281C274.842 86.3281 278.879 85.9736 283.172 85.2646L283.527 87.8052ZM272.301 57.7915L272.301 56.019C272.301 50.4259 271.405 46.4281 269.613 44.0254C267.821 41.6227 265.152 40.4214 261.608 40.4214C256.92 40.4214 253.336 42.1151 250.855 45.5024C248.373 48.8898 246.975 52.9862 246.66 57.7915L272.301 57.7915Z"/>
<path d="M340.187 87.8052C337.745 89.4595 334.722 90.8479 331.118 91.9705C327.514 93.093 323.939 93.6543 320.394 93.6543C311.886 93.6543 305.151 91.163 300.188 86.1804C295.225 81.1978 292.744 74.5511 292.744 66.2402C292.744 57.2204 295.56 49.9041 301.193 44.2913C306.825 38.6785 314.112 35.8721 323.053 35.8721C328.843 35.8721 334.456 37.0537 339.891 39.417C338.591 44.695 337.429 50.0911 336.405 55.6055L334.101 55.96L329.316 41.7803C327.504 41.1501 325.456 40.835 323.171 40.835C317.302 40.835 312.714 42.8831 309.405 46.9795C306.096 51.0758 304.442 56.4917 304.442 63.2271C304.442 71.144 306.313 76.9932 310.055 80.7744C313.797 84.5557 319.725 86.4463 327.839 86.4463C331.58 86.4463 335.578 86.0721 339.832 85.3237L340.187 87.8052Z"/>
</g>
<g fill="#dea563" opacity="1" stroke="none" vectornator:layerName="tspan 1">
<path d="M299.141 174C295.359 174 291.531 174.047 287.656 174.141L287.844 172.125L293.703 170.391C294.641 170.141 295.172 169.656 295.297 168.938C295.547 167.687 295.828 166.289 296.141 164.742C296.453 163.195 296.797 161.484 297.172 159.609L304.438 121.594C304.75 120 305.016 118.563 305.234 117.281C305.453 116 305.641 114.844 305.797 113.812C305.953 113.031 305.688 112.5 305 112.219L299.328 110.391L299.609 108.375C303.734 108.5 307.703 108.562 311.516 108.562C313.359 108.562 315.805 108.484 318.852 108.328C321.898 108.172 324.469 108.094 326.563 108.094C335.875 108.094 343.125 110.219 348.313 114.469C353.5 118.719 356.094 124.859 356.094 132.891C356.094 145.203 352.234 155.18 344.516 162.82C336.797 170.461 326.453 174.281 313.484 174.281C311.828 174.281 309.469 174.234 306.406 174.141C303.344 174.047 300.922 174 299.141 174ZM304.25 169.969C307.156 170.406 310.625 170.625 314.656 170.625C324.25 170.625 331.914 167.016 337.648 159.797C343.383 152.578 346.25 143.531 346.25 132.656C346.25 125.719 344.508 120.531 341.023 117.094C337.539 113.656 332.203 111.938 325.016 111.938C322.203 111.938 318.922 112.062 315.172 112.312L304.25 169.969Z"/>
<path d="M404.047 130.406C403.641 131.844 403.141 133.734 402.547 136.078C401.953 138.422 400.859 143.469 399.266 151.219L396.313 165.844C396.188 166.469 396.125 167.078 396.125 167.672C396.125 169.016 396.617 169.93 397.602 170.414C398.586 170.898 400.359 171.109 402.922 171.047L402.781 172.875C398.719 174.188 395.719 174.844 393.781 174.844C392 174.844 390.57 174.313 389.492 173.25C388.414 172.187 387.875 170.641 387.875 168.609C387.875 168.297 387.891 167.797 387.922 167.109C384.797 169.859 382.125 171.867 379.906 173.133C377.688 174.398 376.125 175.031 375.219 175.031C371.219 175.031 368.063 173.492 365.75 170.414C363.438 167.336 362.281 163.516 362.281 158.953C362.281 150.797 364.734 143.93 369.641 138.352C374.547 132.773 380.75 129.984 388.25 129.984C391.125 129.984 394.422 130.562 398.141 131.719C399.672 131.375 401.469 130.813 403.531 130.031L404.047 130.406ZM394.25 135.609C391.969 134.297 389.734 133.641 387.547 133.641C382.953 133.641 379.063 136.047 375.875 140.859C372.688 145.672 371.094 150.984 371.094 156.797C371.094 160.141 371.711 162.969 372.945 165.281C374.18 167.594 375.922 168.75 378.172 168.75C378.891 168.75 380.125 168.328 381.875 167.484C383.625 166.641 385.859 165.203 388.578 163.172L394.25 135.609Z"/>
<path d="M438.875 134.719C437.188 134.187 435.25 133.922 433.063 133.922C429.906 133.922 427.336 134.57 425.352 135.867C423.367 137.164 422.375 138.859 422.375 140.953C422.375 142.109 422.648 143.109 423.195 143.953C423.742 144.797 424.461 145.547 425.352 146.203C426.242 146.859 427.273 147.445 428.445 147.961C429.617 148.477 430.828 149 432.078 149.531C433.422 150.125 434.758 150.742 436.086 151.383C437.414 152.023 438.602 152.773 439.648 153.633C440.695 154.492 441.539 155.492 442.18 156.633C442.82 157.773 443.141 159.156 443.141 160.781C443.141 165.188 441.305 168.656 437.633 171.188C433.961 173.719 429.203 174.984 423.359 174.984C418.516 174.984 413.75 173.984 409.063 171.984C410.094 168.234 411.031 164.219 411.875 159.938L413.703 159.609L416.703 170.062C418.891 170.75 421.328 171.094 424.016 171.094C427.078 171.094 429.539 170.422 431.398 169.078C433.258 167.734 434.188 165.875 434.188 163.5C434.188 162.5 433.938 161.633 433.438 160.898C432.938 160.164 432.281 159.5 431.469 158.906C430.656 158.312 429.719 157.758 428.656 157.242C427.594 156.727 426.484 156.219 425.328 155.719C424.016 155.156 422.719 154.547 421.438 153.891C420.156 153.234 419.008 152.453 417.992 151.547C416.977 150.641 416.148 149.563 415.508 148.312C414.867 147.062 414.547 145.563 414.547 143.812C414.547 139.562 416.375 136.203 420.031 133.734C423.688 131.266 428.406 130.031 434.188 130.031C438.438 130.031 442.531 130.766 446.469 132.234C445.563 135.391 444.672 139.234 443.797 143.766L441.969 144.094L438.875 134.719Z"/>
<path d="M452.656 174.234L465.922 109.688L458.891 108.469L458.891 106.828C464.234 105.828 469.641 104.688 475.109 103.406L475.484 103.969C474.922 106.313 474.258 109.32 473.492 112.992C472.727 116.664 471.906 120.672 471.031 125.016L468.734 135.75C474.859 131.906 480.313 129.984 485.094 129.984C488.406 129.984 490.945 130.859 492.711 132.609C494.477 134.359 495.359 136.734 495.359 139.734C495.359 141.141 495.203 142.578 494.891 144.047L490.063 166.312C490 166.656 489.953 166.969 489.922 167.25C489.891 167.531 489.875 167.781 489.875 168C489.875 169.25 490.391 170.07 491.422 170.461C492.453 170.852 494.203 171.047 496.672 171.047L496.531 172.875C492.531 174.188 489.375 174.844 487.063 174.844C485.25 174.844 483.859 174.398 482.891 173.508C481.922 172.617 481.438 171.234 481.438 169.359C481.438 168.484 481.578 167.391 481.859 166.078L486.266 145.781C486.578 144.469 486.734 143.234 486.734 142.078C486.734 140.109 486.234 138.578 485.234 137.484C484.234 136.391 482.563 135.844 480.219 135.844C476.438 135.844 472.359 137.125 467.984 139.688L460.953 173.766L452.656 174.234Z"/>
</g>
</g>
</svg>
