<?xml version="1.0" encoding="UTF-8" standalone="no"?>
<!DOCTYPE svg PUBLIC "-//W3C//DTD SVG 1.1//EN" "http://www.w3.org/Graphics/SVG/1.1/DTD/svg11.dtd">
<!-- Created with Vectornator (http://vectornator.io/) -->
<svg height="100%" stroke-miterlimit="10" style="fill-rule:nonzero;clip-rule:evenodd;stroke-linecap:round;stroke-linejoin:round;" version="1.1" viewBox="0 0 500 200" width="100%" xml:space="preserve" xmlns="http://www.w3.org/2000/svg" xmlns:vectornator="http://vectornator.io" xmlns:xlink="http://www.w3.org/1999/xlink">
<defs/>
<g id="layer1" vectornator:layerName="layer1">
<path d="M462.414 175.309C462.414 175.309 339.275 138.731 257.994 156.642C224.045 164.123 208.269 82.8656 195.059 83.8898C184.735 84.6903 167.918 188.557 175.27 180.373C198.464 154.555 170.537 51.3926 187.169 25.2736C191.752 18.0766 214.701 17.3137 225.756 22.6033C252.729 35.5096 239.62 47.9282 230.012 61.0244C218.775 76.3421 195.809 84.2856 195.809 84.2856" fill="none" opacity="1" stroke="#904579" stroke-linecap="round" stroke-linejoin="miter" stroke-width="7.93077" vectornator:layerName="path"/>
</g>
<g id="layer2" vectornator:layerName="layer2">
<g opacity="1" vectornator:layerName="tspan">
<path d="M89.3593 44.2787C91.5623 44.3725 93.5543 44.4194 95.3353 44.4194C97.0703 44.4194 99.4023 44.3725 102.331 44.2787L102.472 45.7905L98.0423 47.1615C97.5033 47.349 97.2223 47.7475 97.1993 48.3569C97.1523 49.9037 97.1283 51.849 97.1283 54.1928L97.1283 82.7043C97.1283 85.4703 97.1523 87.8023 97.1993 89.7003C97.2223 90.2393 97.5503 90.6033 98.1833 90.7903L102.402 92.0913L102.472 93.6033C99.3783 93.5323 96.4253 93.4973 93.6133 93.4973C90.8473 93.4973 88.1173 93.5323 85.4213 93.6033L85.2813 92.0913L89.3243 90.8603C89.8863 90.6963 90.1793 90.2863 90.2033 89.6303C90.2493 87.7783 90.2733 85.4703 90.2733 82.7043L90.2733 52.2592L72.8353 93.4973L70.2693 93.7783L52.7263 52.2592L52.7263 82.7043C52.7263 85.4703 52.7493 87.7783 52.7963 89.6303C52.8203 90.2863 53.1243 90.6963 53.7103 90.8603L57.6483 92.0913L57.7183 93.6033C54.9293 93.5323 52.5973 93.4973 50.7223 93.4973C48.8943 93.4973 46.4685 93.5323 43.4451 93.6033L43.3044 92.0913L47.6286 90.7903C48.238 90.6033 48.5544 90.2393 48.5779 89.7003C48.6247 87.8023 48.6482 85.4703 48.6482 82.7043L48.6482 54.1928C48.6482 51.849 48.6247 49.9037 48.5779 48.3569C48.5544 47.7475 48.2732 47.349 47.7341 47.1615L43.3747 45.7905L43.3044 44.2787C46.3279 44.3725 48.7185 44.4194 50.4763 44.4194C52.4923 44.4194 54.5893 44.3725 56.7693 44.2787L73.0813 82.8453L89.3593 44.2787Z" fill="#3c4e71" fill-rule="nonzero" opacity="1" stroke="none" vectornator:layerName="path"/>
<path d="M103.632 60.9076C106.585 60.978 109.21 61.0131 111.507 61.0131C113.078 61.0131 115.585 60.978 119.031 60.9076L119.171 62.349L115.058 63.474C115.925 65.935 116.933 68.6479 118.081 71.6127C119.23 74.5773 120.449 77.6653 121.738 80.8763C122.277 82.2123 122.863 83.7473 123.496 85.4823C124.152 83.7243 124.855 81.9313 125.605 80.1033C126.706 77.3843 127.773 74.7063 128.804 72.0698C129.835 69.433 130.902 66.5678 132.003 63.474L127.996 62.349L127.855 60.9076C129.589 60.978 131.617 61.0131 133.937 61.0131C136.023 61.0131 138.05 60.978 140.019 60.9076L140.195 62.349L136.925 63.2631C136.199 63.4975 135.671 63.978 135.343 64.7045C134.476 66.6967 133.539 68.8764 132.531 71.2436C129.437 78.5093 127.093 84.4623 125.499 89.1033C124.421 92.2433 123.449 95.4603 122.581 98.7533C121.714 102.046 121.046 104.876 120.578 107.243C120.367 108.392 119.939 109.265 119.294 109.862C118.65 110.46 117.144 110.759 114.777 110.759C112.363 110.759 110.019 110.677 107.746 110.513L107.57 109.142C110.148 108.743 112.058 107.911 113.3 106.646C114.8 105.028 117.121 100.728 120.261 93.7433L120.542 93.0753L120.05 92.9353C115.761 82.2473 111.882 72.849 108.414 64.7397C108.109 64.0365 107.57 63.5561 106.796 63.2983L103.703 62.349L103.632 60.9076Z" fill="#3c4e71" fill-rule="nonzero" opacity="1" stroke="none" vectornator:layerName="path"/>
</g>
</g>
<g id="g4139" vectornator:layerName="g4139">
<g fill="#904579" opacity="1" stroke="none" vectornator:layerName="Texte 1">
<path d="M262.787 67.5093C264.13 67.5093 265.232 67.9546 266.091 68.8452C266.951 69.7359 267.38 70.7906 267.38 72.0093C267.38 73.2281 266.943 74.2749 266.068 75.1499C265.193 76.0249 264.13 76.4624 262.88 76.4624C261.662 76.4624 260.615 76.0327 259.74 75.1734C258.865 74.314 258.427 73.2593 258.427 72.0093C258.427 70.6968 258.88 69.6187 259.787 68.7749C260.693 67.9312 261.693 67.5093 262.787 67.5093ZM252.146 129.009C254.552 128.947 256.349 128.423 257.537 127.439C258.724 126.455 259.318 124.541 259.318 121.697L259.318 96.0562C259.318 94.0874 258.193 93.1031 255.943 93.1031C255.13 93.1031 254.24 93.3062 253.271 93.7124C252.771 93.9312 252.396 94.0718 252.146 94.1343L252.146 91.7437L264.146 87.0093L266.443 87.0093L266.443 121.697C266.443 124.478 267.021 126.376 268.177 127.392C269.333 128.408 271.146 128.947 273.615 129.009L273.615 131.259L252.146 131.259L252.146 129.009Z"/>
<path d="M282.427 116.822C282.677 120.884 283.841 124.041 285.919 126.291C287.997 128.541 290.49 129.666 293.396 129.666C295.802 129.666 297.771 128.931 299.302 127.462C300.833 125.994 301.599 124.134 301.599 121.884C301.599 119.884 301.021 118.197 299.865 116.822C298.677 115.478 296.349 113.712 292.88 111.525C290.412 109.962 288.162 108.501 286.13 107.142C284.099 105.783 282.693 104.4 281.912 102.994C281.099 101.587 280.693 100.15 280.693 98.6812C280.693 95.6499 282.091 92.9468 284.888 90.5718C287.685 88.1968 291.396 87.0093 296.021 87.0093C298.865 87.0093 301.927 87.6343 305.208 88.8843L305.208 101.166L301.833 101.166C301.802 97.6968 300.833 94.9156 298.927 92.8218C297.021 90.7281 294.833 89.6812 292.365 89.6812C290.615 89.6812 289.247 90.2359 288.263 91.3452C287.279 92.4546 286.787 93.7593 286.787 95.2593C286.787 96.9468 287.349 98.3999 288.474 99.6187C289.568 100.869 291.771 102.525 295.083 104.587C300.771 108.181 304.333 110.712 305.771 112.181C307.208 113.681 307.927 115.666 307.927 118.134C307.927 122.041 306.201 125.431 302.747 128.306C299.294 131.181 295.318 132.619 290.818 132.619C287.474 132.619 283.615 131.681 279.24 129.806L279.24 116.822L282.427 116.822Z"/>
<path d="M327.052 108.337L327.052 121.697L327.005 122.775C327.005 126.837 329.412 128.916 334.224 129.009L334.224 131.259L312.802 131.259L312.802 129.009C315.24 128.947 317.037 128.423 318.193 127.439C319.349 126.455 319.927 124.541 319.927 121.697L319.927 77.8218C319.927 74.4781 318.802 72.8062 316.552 72.8062C315.646 72.8062 314.396 73.0562 312.802 73.5562L312.802 71.3062L328.927 64.8843L328.927 66.8062C327.677 67.2124 327.052 68.1499 327.052 69.6187L327.052 108.337L335.255 101.541L335.677 101.072L337.787 99.1968C340.13 97.1343 341.302 95.2281 341.302 93.4781C341.302 91.5406 339.427 90.5406 335.677 90.4781L335.677 88.3218L357.662 88.3218L357.662 90.4781C353.755 90.5406 348.99 92.9312 343.365 97.6499L333.849 105.525L343.083 117.244C349.208 125.056 354.708 128.978 359.583 129.009L359.583 131.259L345.146 131.259L327.052 108.337Z"/>
</g>
</g>
</svg>
