<?xml version="1.0" encoding="UTF-8" standalone="no"?>
<!DOCTYPE svg PUBLIC "-//W3C//DTD SVG 1.1//EN" "http://www.w3.org/Graphics/SVG/1.1/DTD/svg11.dtd">
<!-- Created with Vectornator (http://vectornator.io/) -->
<svg height="100%" stroke-miterlimit="10" style="fill-rule:nonzero;clip-rule:evenodd;stroke-linecap:round;stroke-linejoin:round;" version="1.1" viewBox="0 0 500 200" width="100%" xml:space="preserve" xmlns="http://www.w3.org/2000/svg" xmlns:vectornator="http://vectornator.io" xmlns:xlink="http://www.w3.org/1999/xlink">
<defs/>
<g id="layer1" vectornator:layerName="layer1">
<path d="M15.5577 173.481C15.5577 173.481 130.196 200.448 179.225 172.652C228.255 144.857 182.235 41.6559 251.886 17.3448C321.536-6.9663 484.442 17.4739 484.442 17.4739" fill="none" opacity="1" stroke="#aa3c39" stroke-linecap="round" stroke-linejoin="miter" stroke-width="7.93077" vectornator:layerName="path"/>
</g>
<g id="layer2" vectornator:layerName="layer2">
<g fill="#de6663" opacity="0.6" stroke="none" vectornator:layerName="tspan">
<path d="M119.47 104.503C121.673 104.597 123.665 104.644 125.446 104.644C127.181 104.644 129.513 104.597 132.442 104.503L132.583 106.015L128.153 107.386C127.614 107.574 127.333 107.972 127.31 108.582C127.263 110.128 127.239 112.074 127.239 114.417L127.239 142.929C127.239 145.695 127.263 148.027 127.31 149.925C127.333 150.464 127.661 150.828 128.294 151.015L132.513 152.316L132.583 153.828C129.489 153.757 126.536 153.722 123.724 153.722C120.958 153.722 118.228 153.757 115.532 153.828L115.392 152.316L119.435 151.085C119.997 150.921 120.29 150.511 120.314 149.855C120.36 148.003 120.384 145.695 120.384 142.929L120.384 112.484L102.946 153.722L100.38 154.003L82.837 112.484L82.837 142.929C82.837 145.695 82.8604 148.003 82.9073 149.855C82.9308 150.511 83.2354 150.921 83.8214 151.085L87.7589 152.316L87.8292 153.828C85.0401 153.757 82.7081 153.722 80.8331 153.722C79.005 153.722 76.5792 153.757 73.5558 153.828L73.4151 152.316L77.7393 151.015C78.3487 150.828 78.6651 150.464 78.6886 149.925C78.7354 148.027 78.7589 145.695 78.7589 142.929L78.7589 114.417C78.7589 112.074 78.7354 110.128 78.6886 108.582C78.6651 107.972 78.3839 107.574 77.8448 107.386L73.4854 106.015L73.4151 104.503C76.4386 104.597 78.8292 104.644 80.587 104.644C82.6026 104.644 84.7003 104.597 86.88 104.503L103.192 143.07L119.47 104.503Z"/>
<path d="M133.743 121.132C136.696 121.203 139.321 121.238 141.618 121.238C143.189 121.238 145.696 121.203 149.142 121.132L149.282 122.574L145.169 123.699C146.036 126.16 147.044 128.873 148.192 131.837C149.341 134.802 150.56 137.89 151.849 141.101C152.388 142.437 152.974 143.972 153.607 145.707C154.263 143.949 154.966 142.156 155.716 140.328C156.817 137.609 157.884 134.931 158.915 132.294C159.946 129.658 161.013 126.792 162.114 123.699L158.107 122.574L157.966 121.132C159.7 121.203 161.728 121.238 164.048 121.238C166.134 121.238 168.161 121.203 170.13 121.132L170.306 122.574L167.036 123.488C166.31 123.722 165.782 124.203 165.454 124.929C164.587 126.921 163.65 129.101 162.642 131.468C159.548 138.734 157.204 144.687 155.61 149.328C154.532 152.468 153.56 155.685 152.692 158.978C151.825 162.271 151.157 165.101 150.689 167.468C150.478 168.617 150.05 169.49 149.405 170.087C148.761 170.685 147.255 170.984 144.888 170.984C142.474 170.984 140.13 170.902 137.857 170.738L137.681 169.367C140.259 168.968 142.169 168.136 143.411 166.871C144.911 165.253 147.232 160.953 150.372 153.968L150.653 153.3L150.161 153.16C145.872 142.472 141.993 133.074 138.525 124.964C138.22 124.261 137.681 123.781 136.907 123.523L133.814 122.574L133.743 121.132Z"/>
</g>
</g>
<g id="g4139" vectornator:layerName="g4139">
<g fill="#dea563" opacity="1" stroke="none" vectornator:layerName="tspan 1">
<path d="M300.772 141.722C296.99 141.722 293.162 141.769 289.287 141.863L289.475 139.847L295.334 138.113C296.272 137.863 296.803 137.378 296.928 136.66C297.178 135.41 297.459 134.011 297.772 132.464C298.084 130.917 298.428 129.207 298.803 127.332L306.068 89.3159C306.381 87.7222 306.647 86.2847 306.865 85.0034C307.084 83.7222 307.272 82.5659 307.428 81.5347C307.584 80.7534 307.318 80.2222 306.631 79.9409L300.959 78.1128L301.24 76.0972C305.365 76.2222 309.334 76.2847 313.147 76.2847C314.99 76.2847 317.436 76.2066 320.483 76.0503C323.529 75.8941 326.1 75.8159 328.193 75.8159C337.506 75.8159 344.756 77.9409 349.943 82.1909C355.131 86.4409 357.725 92.5816 357.725 100.613C357.725 112.925 353.865 122.902 346.147 130.542C338.428 138.183 328.084 142.003 315.115 142.003C313.459 142.003 311.1 141.957 308.037 141.863C304.975 141.769 302.553 141.722 300.772 141.722ZM305.881 137.691C308.787 138.128 312.256 138.347 316.287 138.347C325.881 138.347 333.545 134.738 339.279 127.519C345.014 120.3 347.881 111.253 347.881 100.378C347.881 93.4409 346.139 88.2534 342.654 84.8159C339.17 81.3784 333.834 79.6597 326.647 79.6597C323.834 79.6597 320.553 79.7847 316.803 80.0347L305.881 137.691Z"/>
<path d="M405.678 98.1284C405.272 99.5659 404.772 101.457 404.178 103.8C403.584 106.144 402.49 111.191 400.897 118.941L397.943 133.566C397.818 134.191 397.756 134.8 397.756 135.394C397.756 136.738 398.248 137.652 399.233 138.136C400.217 138.621 401.99 138.832 404.553 138.769L404.412 140.597C400.35 141.91 397.35 142.566 395.412 142.566C393.631 142.566 392.201 142.035 391.123 140.972C390.045 139.91 389.506 138.363 389.506 136.332C389.506 136.019 389.522 135.519 389.553 134.832C386.428 137.582 383.756 139.589 381.537 140.855C379.318 142.121 377.756 142.753 376.85 142.753C372.85 142.753 369.693 141.214 367.381 138.136C365.068 135.058 363.912 131.238 363.912 126.675C363.912 118.519 366.365 111.652 371.272 106.074C376.178 100.496 382.381 97.7066 389.881 97.7066C392.756 97.7066 396.053 98.2847 399.772 99.4409C401.303 99.0972 403.1 98.5347 405.162 97.7534L405.678 98.1284ZM395.881 103.332C393.6 102.019 391.365 101.363 389.178 101.363C384.584 101.363 380.693 103.769 377.506 108.582C374.318 113.394 372.725 118.707 372.725 124.519C372.725 127.863 373.342 130.691 374.576 133.003C375.811 135.316 377.553 136.472 379.803 136.472C380.522 136.472 381.756 136.05 383.506 135.207C385.256 134.363 387.49 132.925 390.209 130.894L395.881 103.332Z"/>
<path d="M440.506 102.441C438.818 101.91 436.881 101.644 434.693 101.644C431.537 101.644 428.967 102.292 426.983 103.589C424.998 104.886 424.006 106.582 424.006 108.675C424.006 109.832 424.279 110.832 424.826 111.675C425.373 112.519 426.092 113.269 426.983 113.925C427.873 114.582 428.904 115.167 430.076 115.683C431.248 116.199 432.459 116.722 433.709 117.253C435.053 117.847 436.389 118.464 437.717 119.105C439.045 119.746 440.233 120.496 441.279 121.355C442.326 122.214 443.17 123.214 443.811 124.355C444.451 125.496 444.772 126.878 444.772 128.503C444.772 132.91 442.936 136.378 439.264 138.91C435.592 141.441 430.834 142.707 424.99 142.707C420.147 142.707 415.381 141.707 410.693 139.707C411.725 135.957 412.662 131.941 413.506 127.66L415.334 127.332L418.334 137.785C420.522 138.472 422.959 138.816 425.647 138.816C428.709 138.816 431.17 138.144 433.029 136.8C434.889 135.457 435.818 133.597 435.818 131.222C435.818 130.222 435.568 129.355 435.068 128.621C434.568 127.886 433.912 127.222 433.1 126.628C432.287 126.035 431.35 125.48 430.287 124.964C429.225 124.449 428.115 123.941 426.959 123.441C425.647 122.878 424.35 122.269 423.068 121.613C421.787 120.957 420.639 120.175 419.623 119.269C418.608 118.363 417.779 117.285 417.139 116.035C416.498 114.785 416.178 113.285 416.178 111.535C416.178 107.285 418.006 103.925 421.662 101.457C425.318 98.9878 430.037 97.7534 435.818 97.7534C440.068 97.7534 444.162 98.4878 448.1 99.9566C447.193 103.113 446.303 106.957 445.428 111.488L443.6 111.816L440.506 102.441Z"/>
<path d="M454.287 141.957L467.553 77.4097L460.522 76.1909L460.522 74.5503C465.865 73.5503 471.272 72.4097 476.74 71.1284L477.115 71.6909C476.553 74.0347 475.889 77.0425 475.123 80.7144C474.358 84.3862 473.537 88.3941 472.662 92.7378L470.365 103.472C476.49 99.6284 481.943 97.7066 486.725 97.7066C490.037 97.7066 492.576 98.5816 494.342 100.332C496.108 102.082 496.99 104.457 496.99 107.457C496.99 108.863 496.834 110.3 496.522 111.769L491.693 134.035C491.631 134.378 491.584 134.691 491.553 134.972C491.522 135.253 491.506 135.503 491.506 135.722C491.506 136.972 492.022 137.792 493.053 138.183C494.084 138.574 495.834 138.769 498.303 138.769L498.162 140.597C494.162 141.91 491.006 142.566 488.693 142.566C486.881 142.566 485.49 142.121 484.522 141.23C483.553 140.339 483.068 138.957 483.068 137.082C483.068 136.207 483.209 135.113 483.49 133.8L487.897 113.503C488.209 112.191 488.365 110.957 488.365 109.8C488.365 107.832 487.865 106.3 486.865 105.207C485.865 104.113 484.193 103.566 481.85 103.566C478.068 103.566 473.99 104.847 469.615 107.41L462.584 141.488L454.287 141.957Z"/>
</g>
<g fill="#aa3c39" opacity="1" stroke="none" vectornator:layerName="tspan">
<path d="M276.527 91.8052C273.179 93.8927 269.733 95.3895 266.188 96.2954C262.643 97.2013 259.354 97.6543 256.321 97.6543C247.656 97.6543 240.743 95.1827 235.583 90.2395C230.423 85.2963 227.843 78.4329 227.843 69.6494C227.843 60.9053 230.315 53.7563 235.258 48.2026C240.201 42.6489 246.809 39.8721 255.08 39.8721C262.012 39.8721 267.409 41.9498 271.269 46.1052C275.129 50.2607 277.059 56.0015 277.059 63.3276C277.059 64.4305 277 65.5531 276.881 66.6953L239.423 66.6953C239.423 75.1637 241.413 81.2196 245.391 84.863C249.369 88.5064 255.592 90.3281 264.061 90.3281C267.842 90.3281 271.879 89.9736 276.172 89.2646L276.527 91.8052ZM265.301 61.7915L265.301 60.019C265.301 54.4259 264.405 50.4281 262.613 48.0254C260.821 45.6227 258.152 44.4214 254.608 44.4214C249.92 44.4214 246.336 46.1151 243.855 49.5024C241.373 52.8898 239.975 56.9862 239.66 61.7915L265.301 61.7915Z"/>
<path d="M333.187 91.8052C330.745 93.4595 327.722 94.8479 324.118 95.9705C320.514 97.093 316.939 97.6543 313.394 97.6543C304.886 97.6543 298.151 95.163 293.188 90.1804C288.225 85.1978 285.744 78.5511 285.744 70.2402C285.744 61.2204 288.56 53.9041 294.193 48.2913C299.825 42.6785 307.112 39.8721 316.053 39.8721C321.843 39.8721 327.456 41.0537 332.891 43.417C331.591 48.695 330.429 54.0911 329.405 59.6055L327.101 59.96L322.316 45.7803C320.504 45.1501 318.456 44.835 316.171 44.835C310.302 44.835 305.714 46.8831 302.405 50.9795C299.096 55.0758 297.442 60.4917 297.442 67.2271C297.442 75.144 299.313 80.9932 303.055 84.7744C306.797 88.5557 312.725 90.4463 320.839 90.4463C324.58 90.4463 328.578 90.0721 332.832 89.3237L333.187 91.8052Z"/>
</g>
</g>
</svg>
