<?xml version="1.0" encoding="UTF-8" standalone="no"?>
<!DOCTYPE svg PUBLIC "-//W3C//DTD SVG 1.1//EN" "http://www.w3.org/Graphics/SVG/1.1/DTD/svg11.dtd">
<!-- Created with Vectornator (http://vectornator.io/) -->
<svg height="100%" stroke-miterlimit="10" style="fill-rule:nonzero;clip-rule:evenodd;stroke-linecap:round;stroke-linejoin:round;" version="1.1" viewBox="0 0 500 200" width="100%" xml:space="preserve" xmlns="http://www.w3.org/2000/svg" xmlns:vectornator="http://vectornator.io" xmlns:xlink="http://www.w3.org/1999/xlink">
<defs/>
<g id="layer1" vectornator:layerName="layer1">
<path d="M402.67 172.788C402.67 172.788 182.221 210.965 138.542 175.347C130.517 168.803 124.625 159.878 120.996 149.492C108.535 113.826 122.769 60.9287 169 28.0488C230.047-15.3683 274.69 29.957 274.69 29.957" fill="none" opacity="1" stroke="#717d11" stroke-linecap="round" stroke-linejoin="miter" stroke-width="7.93077" vectornator:layerName="path"/>
</g>
<g id="layer2" vectornator:layerName="layer2">
<g opacity="1" vectornator:layerName="tspan">
<path d="M57.47 58.5034C59.673 58.5972 61.665 58.6441 63.446 58.6441C65.181 58.6441 67.513 58.5972 70.442 58.5034L70.583 60.0152L66.153 61.3862C65.614 61.5737 65.333 61.9722 65.31 62.5816C65.263 64.1284 65.239 66.0737 65.239 68.4175L65.239 96.929C65.239 99.695 65.263 102.027 65.31 103.925C65.333 104.464 65.661 104.828 66.294 105.015L70.513 106.316L70.583 107.828C67.489 107.757 64.536 107.722 61.724 107.722C58.958 107.722 56.228 107.757 53.532 107.828L53.392 106.316L57.435 105.085C57.997 104.921 58.29 104.511 58.314 103.855C58.36 102.003 58.384 99.695 58.384 96.929L58.384 66.4839L40.946 107.722L38.38 108.003L20.837 66.4839L20.837 96.929C20.837 99.695 20.86 102.003 20.907 103.855C20.931 104.511 21.235 104.921 21.821 105.085L25.759 106.316L25.829 107.828C23.04 107.757 20.708 107.722 18.833 107.722C17.005 107.722 14.5792 107.757 11.5558 107.828L11.4151 106.316L15.7393 105.015C16.3487 104.828 16.6651 104.464 16.6886 103.925C16.7354 102.027 16.7589 99.695 16.7589 96.929L16.7589 68.4175C16.7589 66.0737 16.7354 64.1284 16.6886 62.5816C16.6651 61.9722 16.3839 61.5737 15.8448 61.3862L11.4854 60.0152L11.4151 58.5034C14.4386 58.5972 16.8292 58.6441 18.587 58.6441C20.603 58.6441 22.7 58.5972 24.88 58.5034L41.192 97.07L57.47 58.5034Z" fill="#44808a" fill-rule="nonzero" opacity="1" stroke="none" vectornator:layerName="path"/>
<path d="M71.743 75.1323C74.696 75.2027 77.321 75.2378 79.618 75.2378C81.189 75.2378 83.696 75.2027 87.142 75.1323L87.282 76.5737L83.169 77.6987C84.036 80.1597 85.044 82.8726 86.192 85.8374C87.341 88.802 88.56 91.89 89.849 95.101C90.388 96.437 90.974 97.972 91.607 99.707C92.263 97.949 92.966 96.156 93.716 94.328C94.817 91.609 95.884 88.931 96.915 86.2945C97.946 83.6577 99.013 80.7925 100.114 77.6987L96.107 76.5737L95.966 75.1323C97.7 75.2027 99.728 75.2378 102.048 75.2378C104.134 75.2378 106.161 75.2027 108.13 75.1323L108.306 76.5737L105.036 77.4878C104.31 77.7222 103.782 78.2027 103.454 78.9292C102.587 80.9214 101.65 83.1011 100.642 85.4683C97.548 92.734 95.204 98.687 93.61 103.328C92.532 106.468 91.56 109.685 90.692 112.978C89.825 116.271 89.157 119.101 88.689 121.468C88.478 122.617 88.05 123.49 87.405 124.087C86.761 124.685 85.255 124.984 82.888 124.984C80.474 124.984 78.13 124.902 75.857 124.738L75.681 123.367C78.259 122.968 80.169 122.136 81.411 120.871C82.911 119.253 85.232 114.953 88.372 107.968L88.653 107.3L88.161 107.16C83.872 96.472 79.993 87.0737 76.525 78.9644C76.22 78.2612 75.681 77.7808 74.907 77.523L71.814 76.5737L71.743 75.1323Z" fill="#44808a" fill-rule="nonzero" opacity="1" stroke="none" vectornator:layerName="path"/>
</g>
</g>
<g id="g4139" vectornator:layerName="g4139">
<g fill="#717d11" opacity="1" stroke="none" vectornator:layerName="Texte 1">
<path d="M158.448 100.844C164.354 100.844 169.081 102.695 172.628 106.398C176.175 110.102 177.948 115.031 177.948 121.188C177.948 128.5 175.479 134.523 170.542 139.258C165.604 143.992 160.167 146.359 154.229 146.359C148.292 146.359 143.604 144.477 140.167 140.711C136.729 136.945 135.011 132.047 135.011 126.016C135.011 118.828 137.456 112.836 142.347 108.039C147.237 103.242 152.604 100.844 158.448 100.844ZM154.464 104.5C150.214 104.5 146.964 106.016 144.714 109.047C142.464 112.078 141.339 115.875 141.339 120.438C141.339 126.063 143.112 131.086 146.659 135.508C150.206 139.93 154.339 142.141 159.058 142.141C162.558 142.141 165.518 140.688 167.94 137.781C170.362 134.875 171.573 131.078 171.573 126.391C171.573 122.047 170.604 118.148 168.667 114.695C166.729 111.242 164.511 108.68 162.011 107.008C159.511 105.336 156.995 104.5 154.464 104.5Z"/>
<path d="M182.495 105.672L194.683 100.703L196.651 100.703L196.651 116.125C201.151 110.125 204.854 106.055 207.761 103.914C210.667 101.773 213.417 100.703 216.011 100.703C221.292 100.703 223.933 104.094 223.933 110.875L223.933 135.438C223.933 138.219 224.503 140.117 225.643 141.133C226.784 142.148 228.604 142.687 231.104 142.75L231.104 145L214.792 145L214.792 142.75C216.104 142.687 216.761 141.922 216.761 140.453L216.761 111.484C216.761 109.859 216.339 108.555 215.495 107.57C214.651 106.586 213.558 106.094 212.214 106.094C208.276 106.094 204.612 108.883 201.222 114.461C197.831 120.039 196.136 126.437 196.136 133.656C196.136 137.313 196.698 139.727 197.823 140.898C198.948 142.07 200.948 142.687 203.823 142.75L203.823 145L182.495 145L182.495 142.75C185.026 142.687 186.847 142.141 187.956 141.109C189.065 140.078 189.62 138.188 189.62 135.438L189.62 111.484C189.62 108.391 188.589 106.844 186.526 106.844C185.776 106.844 184.433 107.234 182.495 108.016L182.495 105.672Z"/>
<path d="M251.636 87.2969L251.636 89.7344C249.667 90.2031 248.683 92.4219 248.683 96.3906C248.683 99.0781 248.909 100.953 249.362 102.016C249.815 103.078 250.612 103.953 251.753 104.641C252.893 105.328 254.417 105.672 256.323 105.672L260.214 105.672L260.214 107.781L248.729 107.781L248.729 137.875C248.729 138.844 248.925 139.578 249.315 140.078C249.706 140.578 250.292 140.828 251.073 140.828C252.604 140.828 254.886 139.578 257.917 137.078C258.261 136.797 258.526 136.594 258.714 136.469L258.714 139.188C253.401 143.969 249.167 146.359 246.011 146.359C244.542 146.359 243.44 145.789 242.706 144.648C241.972 143.508 241.604 141.813 241.604 139.562L241.604 107.781L234.433 107.781L234.433 105.672C237.183 105.672 239.136 105.125 240.292 104.031C241.448 102.937 242.026 101.016 242.026 98.2656L242.026 91.1875L251.636 87.2969Z"/>
<path d="M274.464 81.25C275.808 81.25 276.909 81.6953 277.768 82.5859C278.628 83.4766 279.058 84.5312 279.058 85.75C279.058 86.9688 278.62 88.0156 277.745 88.8906C276.87 89.7656 275.808 90.2031 274.558 90.2031C273.339 90.2031 272.292 89.7734 271.417 88.9141C270.542 88.0547 270.104 87 270.104 85.75C270.104 84.4375 270.558 83.3594 271.464 82.5156C272.37 81.6719 273.37 81.25 274.464 81.25ZM263.823 142.75C266.229 142.687 268.026 142.164 269.214 141.18C270.401 140.195 270.995 138.281 270.995 135.438L270.995 109.797C270.995 107.828 269.87 106.844 267.62 106.844C266.808 106.844 265.917 107.047 264.948 107.453C264.448 107.672 264.073 107.812 263.823 107.875L263.823 105.484L275.823 100.75L278.12 100.75L278.12 135.438C278.12 138.219 278.698 140.117 279.854 141.133C281.011 142.148 282.823 142.687 285.292 142.75L285.292 145L263.823 145L263.823 142.75Z"/>
<path d="M289.511 105.672L301.698 100.703L303.667 100.703L303.667 116.125C308.167 110.125 311.87 106.055 314.776 103.914C317.683 101.773 320.433 100.703 323.026 100.703C328.308 100.703 330.948 104.094 330.948 110.875L330.948 135.438C330.948 138.219 331.518 140.117 332.659 141.133C333.8 142.148 335.62 142.687 338.12 142.75L338.12 145L321.808 145L321.808 142.75C323.12 142.687 323.776 141.922 323.776 140.453L323.776 111.484C323.776 109.859 323.354 108.555 322.511 107.57C321.667 106.586 320.573 106.094 319.229 106.094C315.292 106.094 311.628 108.883 308.237 114.461C304.847 120.039 303.151 126.437 303.151 133.656C303.151 137.313 303.714 139.727 304.839 140.898C305.964 142.07 307.964 142.687 310.839 142.75L310.839 145L289.511 145L289.511 142.75C292.042 142.687 293.862 142.141 294.972 141.109C296.081 140.078 296.636 138.188 296.636 135.438L296.636 111.484C296.636 108.391 295.604 106.844 293.542 106.844C292.792 106.844 291.448 107.234 289.511 108.016L289.511 105.672Z"/>
<path d="M341.542 103.75L357.62 100.891L357.62 102.719C356.308 103.094 355.651 104.172 355.651 105.953L355.651 134.969C355.651 136.875 356.073 138.375 356.917 139.469C357.761 140.563 358.886 141.109 360.292 141.109C363.886 141.109 367.464 138.406 371.026 133C374.589 127.594 376.37 121.234 376.37 113.922C376.37 111.109 376.003 109.016 375.268 107.641C374.534 106.266 373.229 105.578 371.354 105.578C370.761 105.578 369.87 105.703 368.683 105.953L368.683 103.75L384.995 100.891L384.995 102.719C383.62 102.938 382.933 104.016 382.933 105.953L382.933 136.094C382.933 139 384.011 140.453 386.167 140.453C387.448 140.453 389.089 139.984 391.089 139.047L391.089 141.344L378.151 146.5L375.854 146.5L375.854 130.938C370.948 137.625 367.065 141.867 364.206 143.664C361.347 145.461 358.698 146.359 356.261 146.359C351.104 146.359 348.526 142.703 348.526 135.391L348.526 109.75C348.526 107.031 347.073 105.672 344.167 105.672C343.542 105.672 342.667 105.766 341.542 105.953L341.542 103.75Z"/>
<path d="M406.511 81.25C407.854 81.25 408.956 81.6953 409.815 82.5859C410.675 83.4766 411.104 84.5312 411.104 85.75C411.104 86.9688 410.667 88.0156 409.792 88.8906C408.917 89.7656 407.854 90.2031 406.604 90.2031C405.386 90.2031 404.339 89.7734 403.464 88.9141C402.589 88.0547 402.151 87 402.151 85.75C402.151 84.4375 402.604 83.3594 403.511 82.5156C404.417 81.6719 405.417 81.25 406.511 81.25ZM395.87 142.75C398.276 142.687 400.073 142.164 401.261 141.18C402.448 140.195 403.042 138.281 403.042 135.438L403.042 109.797C403.042 107.828 401.917 106.844 399.667 106.844C398.854 106.844 397.964 107.047 396.995 107.453C396.495 107.672 396.12 107.812 395.87 107.875L395.87 105.484L407.87 100.75L410.167 100.75L410.167 135.438C410.167 138.219 410.745 140.117 411.901 141.133C413.058 142.148 414.87 142.687 417.339 142.75L417.339 145L395.87 145L395.87 142.75Z"/>
<path d="M437.683 87.2969L437.683 89.7344C435.714 90.2031 434.729 92.4219 434.729 96.3906C434.729 99.0781 434.956 100.953 435.409 102.016C435.862 103.078 436.659 103.953 437.8 104.641C438.94 105.328 440.464 105.672 442.37 105.672L446.261 105.672L446.261 107.781L434.776 107.781L434.776 137.875C434.776 138.844 434.972 139.578 435.362 140.078C435.753 140.578 436.339 140.828 437.12 140.828C438.651 140.828 440.933 139.578 443.964 137.078C444.308 136.797 444.573 136.594 444.761 136.469L444.761 139.188C439.448 143.969 435.214 146.359 432.058 146.359C430.589 146.359 429.487 145.789 428.753 144.648C428.018 143.508 427.651 141.813 427.651 139.562L427.651 107.781L420.479 107.781L420.479 105.672C423.229 105.672 425.183 105.125 426.339 104.031C427.495 102.937 428.073 101.016 428.073 98.2656L428.073 91.1875L437.683 87.2969Z"/>
<path d="M447.011 102.062L462.198 102.062L462.198 104.312C461.011 104.375 460.417 104.75 460.417 105.438C460.417 105.813 460.511 106.203 460.698 106.609L472.323 135.531L476.917 123.297C478.979 117.797 480.011 113.234 480.011 109.609C480.011 107.703 479.487 106.344 478.44 105.531C477.393 104.719 475.683 104.312 473.308 104.312L473.308 102.062L492.854 102.062L492.854 104.312C490.854 104.438 489.315 105.086 488.237 106.258C487.159 107.43 485.776 110 484.089 113.969L468.011 155.688C465.542 162.094 460.886 165.594 454.042 166.188L446.448 157.234L448.979 155.219C451.448 158.281 454.198 159.812 457.229 159.812C458.823 159.812 460.292 159.313 461.636 158.312C462.979 157.312 463.995 156.133 464.683 154.773C465.37 153.414 466.417 150.891 467.823 147.203L468.573 145.281L455.776 113.453C454.401 110.016 453.089 107.641 451.839 106.328C450.589 105.016 448.979 104.344 447.011 104.312L447.011 102.062Z"/>
</g>
</g>
</svg>
